- 
http://www.Speed.Cd      fast  and The Hottest Private Tracker on the net

Please Seed back to make the speed Faster!!!

------------------nfo--------------------------
-[img]http://img6.imageshack.us/img6/8549/96ca5dwoman.jpg[/img]

The.Woman.2011.BRRip.XviD.AC3-EMBER 
http://www.imdb.com/title/tt1714208

Plot:
When a successful country lawyer captures and attempts to "civilize" the last remaining member of a violent 
clan that has roamed the Northeast coast for decades, he puts the lives of his family in jeopardy.

Source                           : 720p.BluRay.X264-7SinS Thanks

General
Format                           : AVI
Format/Info                      : Audio Video Interleave
File size                        : 1.50 GiB
Duration                         : 1h 42mn
Overall bit rate                 : 2 093 Kbps
Writing application              : VirtualDubMod 1.5.10.2 (build 2540/release)
Writing library                  : VirtualDubMod build 2540/release

Video
ID                               : 0
Format                           : MPEG-4 Visual
Format profile                   : Advanced Simple@L5
Format settings, BVOP            : 2
Format settings, QPel            : No
Format settings, GMC             : No warppoints
Format settings, Matrix          : Default (H.263)
Muxing mode                      : Packed bitstream
Codec ID                         : XVID
Codec ID/Hint                    : XviD
Duration                         : 1h 42mn
Bit rate                         : 1 700 Kbps
Width                            : 720 pixels
Height                           : 400 pixels
Display aspect ratio             : 16:9
Frame rate                       : 23.976 fps
Color space                      : YUV
Chroma subsampling               : 4:2:0
Bit depth                        : 8 bits
Scan type                        : Progressive
Compression mode                 : Lossy
Bits/(Pixel*Frame)               : 0.246
Stream size                      : 1.22 GiB (81%)
Writing library                  : XviD 64

Audio
ID                               : 1
Format                           : AC-3
Format/Info                      : Audio Coding 3
Mode extension                   : CM (complete main)
Codec ID                         : 2000
Duration                         : 1h 42mn
Bit rate mode                    : Constant
Bit rate                         : 384 Kbps
Channel(s)                       : 6 channels
Channel positions                : Front: L C R, Side: L R, LFE
Sampling rate                    : 48.0 KHz
Bit depth                        : 16 bits
Compression mode                 : Lossy
Stream size                      : 282 MiB (18%)
Alignment                        : Split accross interleaves
Interleave, duration             : 42 ms (1.00 video frame)
Interleave, preload duration     : 500 ms

Screens
[img]http://img819.imageshack.us/img819/729/59563336.png[/img]
[img]http://img511.imageshack.us/img511/5869/19439136.png[/img]
[img]http://img202.imageshack.us/img202/5610/58929732.png[/img]
[img]http://img714.imageshack.us/img714/5512/36078916.png[/img]

Greetz to 
SHiRK, SHK, LKRG, UnKnOwN, IMAGiNE, SiC, BHRG, TaRiQ786, FLAWL3SS, Rx, Hive-CM8

SAMURAi, ViSUALiSE, RemixHD, iNSANE, DTRG

And to all other groups past and present

Got something to offer?

then you should know where to find us